<?xml version="1.0" encoding="utf-8"?>
<!-- Generator: Adobe Illustrator 16.0.0, SVG Export Plug-In . SVG Version: 6.00 Build 0)  -->
<!DOCTYPE svg PUBLIC "-//W3C//DTD SVG 1.1//EN" "http://www.w3.org/Graphics/SVG/1.1/DTD/svg11.dtd">
<svg version="1.1" id="Layer_1" xmlns="http://www.w3.org/2000/svg" xmlns:xlink="http://www.w3.org/1999/xlink" x="0px" y="0px"
	 width="600px" height="130.608px" viewBox="-238.954 -60.931 600 130.608" enable-background="new -238.954 -60.931 600 130.608"
	 xml:space="preserve">
<g id="Layer_x0020_1">
	<g id="_1039873792">
		<g>
			<rect x="-238.904" y="-63.891" fill="none" width="600" height="135.554"/>
			<g>
				<g>
					<path fill="#E31E24" d="M-144.463-32.557h13.335c2.888,0.225,4.441,0.889,5.107,2.222c0.444,0.886,0.667,2.222,0.667,4.219
						v16.668c0,1.558-0.667,3.113-2,4.668c-4.219,4.219-10.664,6.446-19.107,6.446c-7.559,0-14.004-2.673-19.554-8.443
						c-5.557-5.781-8.445-12.452-8.445-20.672c0-8.001,2.888-14.668,8.445-19.996c5.774-5.337,12.439-8.001,19.996-8.001
						c6.004,0,11.553,2,16.89,5.774c1.331,1.116,2,2.227,2,3.338c0,1.331-0.444,2.664-1.555,4.438c-2,2.671-3.774,4.004-5.559,4.004
						c-0.886,0-2.441-0.667-4.438-2.222c-2.222-1.338-4.673-2.004-7.557-2.004c-4.004,0-7.336,1.34-10.22,4.004
						c-3.118,2.664-4.673,6.226-4.673,10.665c0,4.448,1.555,8,4.673,11.116c3.108,3.11,6.438,4.661,10.22,4.661
						c2.883,0,5.335-0.442,7.557-1.55v-8.226h-6.004c-1.553,0-2.664-0.22-3.33-0.444c-0.667-0.442-1.108-1.108-1.333-1.775
						c-0.22-0.889-0.22-2.007-0.22-3.337c0-1.333,0-2.444,0.22-3.108c0.225-0.889,0.667-1.331,1.333-1.775
						C-147.126-32.333-145.793-32.557-144.463-32.557z M-101.575,0.779c-5.105,0-9.332-1.787-12.662-5.782
						c-3.34-3.782-4.89-8.445-4.89-14.002v-13.328c0-1.343,0-2.007,0-2.674c0-0.444,0.22-1.108,0.664-1.997
						c0.667-1.333,2.673-2,6.001-2c3.331,0,5.56,0.889,6.004,2.888c0.444,0.889,0.664,1.997,0.664,3.782v13.328
						c0,2,0.444,3.558,1.777,4.893c1.111,1.108,2.666,1.775,4.668,1.775c2,0,3.555-0.667,4.888-1.997
						c1.108-1.113,1.775-2.671,1.775-4.671v-13.328c0-1.343,0-2.229,0.222-2.674c0-0.664,0.222-1.333,0.667-1.997
						c0.674-1.333,2.671-2,5.779-2c3.115,0,5.115,0.667,5.779,2c0.444,0.889,0.667,1.553,0.667,1.997
						c0.225,0.667,0.225,1.555,0.225,2.674v26.885c0,1.111,0,1.775-0.225,2.444c0,0.664-0.222,1.108-0.667,1.995
						c-0.664,1.343-2.664,2.007-5.779,2.007c-3.108,0-5.105-0.664-5.779-2.007c-0.444-0.886-0.667-1.775-0.667-3.106
						c-0.222,0.442-0.667,0.886-1.333,1.556c-0.664,0.664-1.553,1.331-1.997,1.775C-97.569,0.334-99.569,0.779-101.575,0.779z
						 M-59.352-12.337c1.56,0,2.893,0.222,3.56,1.108c0.884,0.889,1.328,2.666,1.328,5.337c0,2.664-0.444,4.441-1.328,5.33
						c-0.889,0.896-2,1.34-3.782,1.34c-5.107,0-8.665-1.118-10.665-3.562c-2-2.442-3.108-6.666-3.108-12.217v-36.227
						c0-1.111,0-2,0.22-2.664c0-0.444,0.225-1.111,0.444-2c0.889-1.333,2.888-2,6.001-2c3.111,0,5.108,0.889,5.774,2.222
						c0.444,0.667,0.667,1.333,0.667,1.997c0.222,0.444,0.222,1.333,0.222,2.444v36.449C-60.019-13.223-59.797-12.337-59.352-12.337
						z M-39.569-14.779c0,0.886,0.217,1.555,0.439,1.997c0.449,0.222,1.56,0.444,3.11,0.444c1.778,0,3.116,0.222,4.227,1.108
						c1.111,0.889,1.777,2.666,1.777,5.337c0,2.664-0.667,4.441-1.777,5.33c-1.333,0.896-2.894,1.34-5.11,1.34
						c-10.664,0-16.001-5.337-16.001-15.779v-36.227c0-1.111,0-2,0-2.664c0.217-0.444,0.444-1.111,0.662-2
						c0.889-1.333,2.898-2,6.004-2c3.11,0,5.115,0.889,5.781,2.222c0.444,1.108,0.889,2.664,0.889,4.441V-14.779z M11.097-38.559
						c3.105,1.333,4.661,2.888,4.661,4.883c0,0.899-0.222,1.788-0.667,2.452c-0.439,0.889-0.667,1.331-0.667,1.331L-5.349,14.548
						c-0.439,0.889-0.889,1.556-1.111,2.222c-0.217,0.452-0.667,0.896-1.328,1.341c-0.672,0.444-1.343,0.664-2.227,0.664
						c-0.889,0-2.222-0.22-3.999-1.108c-2.898-1.341-4.448-2.894-4.448-4.668c0-1.113,2.449-6.893,7.336-17.335l-15.118-25.333
						c-1.111-1.775-1.55-2.888-1.55-3.782c0-1.555,1.328-3.108,4.004-4.885c1.772-0.889,3.105-1.333,3.995-1.333
						c1.111,0,1.777,0,2.444,0.444c0.671,0.444,1.116,0.889,1.338,1.333c0.222,0.442,1.55,2.666,4.216,7.112
						c2.444,4.219,4.893,8.223,7.115,11.775c0.222-0.667,1.555-3.774,3.994-9.333c2.454-5.337,3.787-8.221,4.004-8.665
						c0.222-0.222,0.444-0.667,0.889-1.333c0.667-0.889,1.555-1.108,2.661-1.108C8.214-39.445,9.542-39.225,11.097-38.559z
						 M41.767-38.781c4.438,0,8.665,2,12.215,6.004c3.776,3.772,5.781,8.442,5.781,13.772c0,5.337-2.005,9.998-5.555,13.78
						c-3.776,3.997-7.781,6.004-12.225,6.004c-4.226,0-7.332-1.118-9.114-3.562c-0.444,2.444-2.444,3.782-6.438,3.782
						c-3.116,0-5.115-0.896-5.782-2.227c-0.444-0.667-0.667-1.331-0.667-2c-0.222-0.444-0.222-1.331-0.222-2.439v-45.341
						c0-1.108,0-1.997,0.222-2.664c0-0.444,0.222-1.108,0.667-1.775c0.667-1.333,2.666-2.219,5.782-2.219
						c3.328,0,5.105,0.886,5.771,2.219c0.439,0.667,0.667,1.331,0.667,2c0.227,0.442,0.227,1.331,0.227,2.439v15.782
						C35.096-37.67,37.98-38.781,41.767-38.781z M35.096-14.334c1.111,1.331,2.661,1.997,4.661,1.997
						c1.787,0,3.338-0.667,4.671-1.997c1.333-1.333,1.999-2.896,1.999-4.671c0-1.555-0.666-3.108-1.772-4.441
						c-1.11-1.56-2.888-2.229-4.897-2.229c-2,0-3.55,0.669-4.661,2.229c-1.333,1.333-1.777,2.886-1.777,4.441
						C33.319-17.23,33.763-15.667,35.096-14.334z M90.65-34.784c0.223-2.666,2.228-4.219,5.777-4.219
						c1.999,0,3.56,0.222,4.448,0.444c1.11,0.444,1.777,0.889,1.999,1.555c0.439,0.889,0.667,1.553,0.667,2.219
						c0.222,0.444,0.222,1.333,0.222,2.452v26.666c0,1.108,0,1.995-0.222,2.439c0,0.669-0.228,1.333-0.667,2
						c-0.666,1.331-2.443,2.007-5.114,2.007c-2.661,0-4.661-0.225-5.55-0.896c-0.889-0.667-1.338-1.777-1.561-3.111
						c-1.999,2.667-5.109,4.007-9.336,4.007c-4.438,0-8.442-2.007-12.22-6.004c-3.781-4.004-5.559-8.667-5.559-13.78
						c0-5.33,1.777-10,5.559-13.994c3.777-3.782,8.004-5.782,12.442-5.782c1.787,0,3.337,0.222,4.67,0.889
						c1.333,0.442,2.444,1.111,2.889,1.553C89.761-35.671,90.2-35.226,90.65-34.784z M76.875-19.005
						c0,1.775,0.444,3.338,1.772,4.671c1.338,1.331,2.889,1.997,4.897,1.997c1.777,0,3.328-0.886,4.656-2.219
						c1.11-1.333,1.782-2.893,1.782-4.449c0-1.555-0.672-3.108-1.782-4.663c-1.106-1.338-2.661-2.007-4.656-2.007
						c-2.009,0-3.786,0.669-4.897,2.007C77.32-22.113,76.875-20.56,76.875-19.005z M131.757-38.781c4.448,0,8.448,2,12.225,6.004
						c3.777,3.772,5.786,8.442,5.786,13.772c0,5.337-2.009,9.998-5.786,13.78c-3.555,3.997-7.554,6.004-12.002,6.004
						c-4.217,0-7.327-1.118-9.109-3.562c-0.444,2.444-2.666,3.782-6.438,3.782c-3.342,0-5.114-0.896-5.781-2.227
						c-0.444-0.667-0.661-1.331-0.661-2c-0.228-0.444-0.228-1.331-0.228-2.439v-45.341c0-1.108,0-1.997,0.228-2.664
						c0-0.444,0.217-1.108,0.661-1.775c0.667-1.333,2.666-2.219,5.781-2.219c3.105,0,5.105,0.886,5.771,2.219
						c0.445,0.667,0.667,1.331,0.667,2c0.223,0.442,0.223,1.331,0.223,2.439v15.782C125.102-37.67,127.981-38.781,131.757-38.781z
						 M125.102-14.334c1.106,1.331,2.661,1.997,4.661,1.997c1.777,0,3.332-0.667,4.665-1.997c1.339-1.333,2-2.896,2-4.671
						c0-1.555-0.661-3.108-1.772-4.441c-1.338-1.56-2.898-2.229-4.893-2.229c-2,0-3.555,0.669-4.888,2.229
						c-1.121,1.333-1.782,2.886-1.782,4.441C123.093-17.23,123.754-15.667,125.102-14.334z M180.423-34.784
						c0.449-2.666,2.454-4.219,6.004-4.219c2,0,3.555,0.222,4.448,0.444c0.889,0.444,1.556,0.889,2,1.555
						c0.444,0.889,0.666,1.553,0.666,2.219c0.223,0.444,0.223,1.333,0.223,2.452v26.666c0,1.108,0,1.995-0.223,2.439
						c0,0.669-0.222,1.333-0.666,2c-0.667,1.331-2.449,2.007-5.115,2.007c-2.661,0-4.66-0.225-5.56-0.896
						c-0.889-0.667-1.55-1.777-1.55-3.111c-2,2.667-5.105,4.007-9.331,4.007c-4.443,0-8.448-2.007-12.225-6.004
						c-3.777-4.004-5.555-8.667-5.555-13.78c0-5.33,1.777-10,5.555-13.994c3.776-3.782,8.003-5.782,12.441-5.782
						c1.777,0,3.338,0.222,4.671,0.889c1.333,0.442,2.443,1.111,2.888,1.553C179.762-35.671,180.206-35.226,180.423-34.784z
						 M166.654-19.005c0,1.775,0.667,3.338,1.995,4.671c1.338,1.331,2.888,1.997,4.888,1.997c1.787,0,3.337-0.886,4.67-2.219
						c1.106-1.333,1.777-2.893,1.777-4.449c0-1.555-0.671-3.108-1.777-4.663c-1.11-1.338-2.883-2.007-4.67-2.007
						c-2,0-3.777,0.669-4.888,2.007C167.321-22.113,166.654-20.56,166.654-19.005z M211.537-11.448
						c0.889,0.889,1.339,2.441,1.339,5.334v0.222c0,1.111-0.228,2-0.228,2.664c0,0.669-0.223,1.333-0.884,2
						c-0.672,1.563-2.666,2.227-5.564,2.227c-3.105,0-5.1-0.444-6.211-1.338c-0.889-1.111-1.343-2.889-1.343-5.552v-0.222
						c0-1.108,0-1.997,0-2.671c0.228-0.664,0.454-1.333,0.894-2c0.672-1.553,2.671-2.439,5.55-2.439
						C208.21-13.223,210.427-12.559,211.537-11.448z M230.205-19.005c0,2.22,0.662,3.782,2.005,5.113
						c1.555,1.111,3.11,1.777,4.66,1.777c1.556,0,3.11-0.667,4.448-1.553c1.334-0.889,2.444-1.333,3.333-1.333
						c1.556,0,3.328,1.333,5.555,3.997c1.11,1.555,1.777,2.893,1.777,4.001c0,1.777-1.551,3.555-4.227,5.33
						c-2.888,2.007-6.438,3.115-10.664,3.115c-4.661,0-9.109-1.782-13.553-5.115c-2-1.775-3.777-3.774-5.11-6.445
						c-1.11-2.886-1.777-5.771-1.777-9.112c0-3.105,0.667-6.221,1.777-8.665c1.333-2.664,3.11-4.883,5.11-6.446
						c4.222-3.33,8.67-5.105,13.553-5.105c1.777,0,3.787,0.22,5.56,0.886c1.777,0.444,3.105,1.108,3.994,1.555l1.11,0.664
						c0.889,0.669,1.787,1.113,2.227,1.555c1.333,0.889,2,2.007,2,3.34c0,1.331-0.667,2.883-1.551,4.438
						c-2.004,2.671-3.564,4.226-5.337,4.226c-0.889,0-2.217-0.667-3.999-1.777c-0.894-0.894-2.227-1.338-4.004-1.338
						c-1.551,0-3.328,0.664-4.661,1.782C230.867-22.78,230.205-21.224,230.205-19.005z M255.76-19.005
						c0-6.001,2.005-11.108,6.222-14.891c4.226-3.997,9.114-5.994,14.668-5.994c5.337,0,10.226,1.997,14.451,5.994
						c4.217,3.782,6.211,8.89,6.211,14.891c0,4.227-1.11,8.001-3.105,11.114c-2.222,3.333-4.893,5.774-7.998,7.33
						c-3.11,1.34-6.448,2.227-9.559,2.227c-3.337,0-6.665-0.886-9.775-2.449c-3.115-1.775-5.776-3.997-7.998-7.327
						C256.871-11.229,255.76-15.001,255.76-19.005z M271.534-13.448c1.561,1.111,3.338,1.775,4.898,1.775
						c1.777,0,3.327-0.664,5.104-1.995c1.561-1.111,2.449-3.118,2.449-5.562c0-2.439-0.889-4.216-2.449-5.557
						c-1.555-1.108-3.11-1.775-4.888-1.775c-1.994,0-3.555,0.667-5.115,2.004c-1.55,1.111-2.438,3.108-2.438,5.552
						C269.096-16.563,269.985-14.779,271.534-13.448z M315.323-33.676c2.439-3.55,5.105-5.327,8.443-5.327
						c5.327,0,9.114,2.222,11.553,6.67c0.662-0.899,1.333-1.563,2-2.452c0.889-0.886,1.999-1.775,3.776-2.666
						c1.782-1.108,3.56-1.553,5.333-1.553c4.004,0,7.331,1.553,10.229,4.663c2.661,3.116,3.989,8.223,3.989,15.335v13.338
						c0,1.108,0,1.995,0,2.664c-0.217,0.444-0.439,1.108-0.884,1.995c-0.667,1.343-2.444,2.007-5.781,2.007
						c-3.11,0-5.105-0.664-5.776-2.227c-0.449-0.667-0.672-1.331-0.672-2c0-0.444-0.217-1.331-0.217-2.439v-13.338
						c0-4.441-1.556-6.67-4.661-6.67c-1.777,0-2.898,0.669-3.564,1.787c-0.662,1.108-0.884,2.883-0.884,4.883v13.338
						c0,1.108,0,1.995-0.228,2.664c0,0.444-0.222,1.108-0.661,1.995c-0.667,1.343-2.666,2.007-5.781,2.007
						c-3.333,0-5.105-0.664-5.994-2.227c-0.223-0.667-0.444-1.331-0.667-2c0-0.444,0-1.331,0-2.439v-13.338
						c0-4.441-1.56-6.67-4.67-6.67c-3.105,0-4.666,2.229-4.666,6.67v13.338c0,1.108,0,1.995,0,2.664
						c-0.218,0.664-0.449,1.331-0.672,1.995c-0.889,1.343-2.883,2.007-5.993,2.007c-3.115,0-5.115-0.664-5.776-2.007
						c-0.45-0.886-0.672-1.55-0.672-1.995c0-0.669-0.217-1.556-0.217-2.664v-26.666c0-1.119,0.217-2.007,0.217-2.674
						c0-0.444,0.222-1.108,0.672-1.997c0.889-1.333,2.661-2,5.332-2c2.883,0,4.66,0.444,5.549,1.333
						C314.868-36.559,315.323-35.451,315.323-33.676z"/>
					<g>
						<path fill="#E31E24" d="M-206.901-25.675h14.439v1.34h-14.439l-0.669-0.671L-206.901-25.675z M-207.57-25.006v-0.669h0.669
							L-207.57-25.006z M-207.57-20.116v-4.89h1.333v4.89l-0.664,0.667L-207.57-20.116z M-206.901-19.449h-0.669v-0.667
							L-206.901-19.449z M-196.017-19.449h-10.884v-1.333h10.884V-19.449L-196.017-19.449z M-196.017-19.449L-196.017-19.449
							L-196.017-19.449L-196.017-19.449z M-193.131-18.119h-1.331l0,0v-0.22v-0.222l0,0v-0.225v-0.22l0,0v-0.225v-0.22l0,0l0,0l0,0
							v-0.222l0,0v0.222l0,0l0,0l0,0l0,0h0.22h-0.22l0,0l0,0l0,0h-0.222l0,0h-0.222h-0.222l0,0h-0.222h-0.222h-0.222h-0.222v-1.333
							h0.222h0.222h0.222h0.222l0,0h0.222h0.222l0,0h0.222h0.22l0,0h0.225v0.222h0.22h0.225v0.222h0.22v0.222l0,0l0.222,0.222v0.222
							l0,0v0.222l0,0v0.22v0.225l0,0v0.22v0.225l0,0v0.222V-18.119L-193.131-18.119z M-193.131-18.119L-193.131-18.119
							L-193.131-18.119L-193.131-18.119z M-193.798-13.448l-1.331-0.22l0,0l0.222-0.225v-0.22l0,0v-0.222v-0.222l0,0l0.222-0.222
							l0,0v-0.222l0,0v-0.222l0,0v-0.225l0,0v-0.22l0,0v-0.222l0,0v-0.222l0,0v-0.222h0.222v-0.229v-0.222l0,0v-0.22v-0.225l0,0
							v-0.219v-0.225v-0.219v-0.225h1.331v0.225v0.219v0.225v0.219l-0.222,0.225l0,0v0.22v0.222l0,0v0.229v0.222l0,0v0.222l0,0
							v0.222l0,0v0.22v0.225l0,0v0.222l0,0v0.222h-0.22v0.222l0,0v0.222v0.222l0,0v0.22l-0.225,0.225V-13.448L-193.798-13.448
							L-193.798-13.448z M-193.798-13.448L-193.798-13.448L-193.798-13.448L-193.798-13.448z M-197.125-9.896l-0.222-1.333h-0.222
							h0.222h0.222h0.22v-0.22h0.225l0,0h0.22v-0.225h0.225l0,0h0.22l0,0v-0.22l0,0h0.222l0,0v-0.222l0,0h0.222v-0.222l0,0v-0.222
							l0,0h0.222v-0.222l0,0v-0.222l0.222-0.22l0,0v-0.225v-0.22l0,0l1.331,0.22v0.225l-0.22,0.22v0.222l0,0v0.222l-0.225,0.222l0,0
							v0.222l0,0l-0.22,0.222v0.22l0,0l-0.222,0.225l0,0v0.22h-0.222v0.225h-0.222v0.22h-0.222v0.225h-0.222l0,0l-0.222,0.22h-0.222
							l0,0l-0.22,0.222h-0.225h-0.22l0,0l-0.225,0.222H-197.125L-197.125-9.896z M-197.125-9.896L-197.125-9.896L-197.125-9.896
							L-197.125-9.896z M-214.457-0.784l1.108-0.667h-0.889l0.222-0.222v-0.222l0.222-0.222l0.222-0.222l0.444-0.22l0.222-0.444
							l0.222-0.225l0.22-0.219l0.444-0.445l0.225-0.222l0.442-0.444l0.444-0.222l0.444-0.444l0.444-0.222l0.444-0.444l0.444-0.444
							l0.442-0.222l0.669-0.444l0.449-0.22l0.669-0.444l0.444-0.225l0.664-0.449l0.667-0.222l0.889-0.444l0.664-0.222l0.667-0.444
							l0.889-0.222l0.889-0.222l0.886-0.442l0.896-0.225l0.886-0.22l1.113-0.225l0.222,1.333l-1.111,0.222l-0.889,0.225l-0.894,0.22
							l-0.669,0.222l-0.886,0.222l-0.889,0.444l-0.667,0.229l-0.664,0.22l-0.669,0.444l-0.664,0.225l-0.667,0.444l-0.444,0.22
							l-0.664,0.444l-0.447,0.222l-0.671,0.444l-0.444,0.222l-0.444,0.444l-0.444,0.222l-0.444,0.444l-0.222,0.222l-0.444,0.445
							l-0.444,0.219l-0.22,0.225l-0.225,0.444l-0.442,0.22l-0.225,0.222l-0.22,0.444l-0.225,0.222l-0.22,0.222l-0.222,0.22
							l-0.222,0.225l-0.222,0.222L-214.457-0.784z M-213.349-0.562l-0.667,0.444l-0.442-0.667L-213.349-0.562z M-228.904-10.34
							l0.442-1.333l0,0l0.444,0.225l0.667,0.22l0.442,0.225l0.444,0.22l0.669,0.225l0.442,0.22l0.444,0.222l0.674,0.222l0.444,0.222
							l0.444,0.444l0.664,0.222l0.444,0.222l0.444,0.222l0.667,0.452l0.444,0.22l0.444,0.225l0.444,0.444l0.667,0.22l0.444,0.444
							l0.444,0.222l0.442,0.444l0.444,0.444l0.444,0.222l0.444,0.444l0.452,0.444l0.444,0.222l0.442,0.442l0.225,0.444l0.444,0.445
							l0.442,0.444l0.222,0.444l0.444,0.444l-1.108,0.667l-0.225-0.225l-0.444-0.442l-0.22-0.444l-0.444-0.444l-0.222-0.444
							l-0.452-0.22l-0.444-0.444l-0.444-0.445l-0.444-0.222l-0.442-0.444l-0.444-0.222l-0.444-0.444l-0.444-0.222l-0.444-0.444
							l-0.447-0.222l-0.442-0.444l-0.444-0.22l-0.444-0.225l-0.664-0.444l-0.444-0.22l-0.444-0.225l-0.444-0.22l-0.674-0.229
							l-0.444-0.444l-0.444-0.222l-0.442-0.222l-0.669-0.22l-0.444-0.225l-0.442-0.222l-0.444-0.222l-0.667-0.222H-228.904
							L-228.904-10.34z M-228.462-11.673L-228.462-11.673L-228.462-11.673L-228.462-11.673z M-233.797-14.779l1.338-0.222v0.222
							v0.222v0.222v0.222v0.22l0,0v0.225l0.222,0.22l0,0v0.225l0,0l0.222,0.22l0,0l0,0l0.222,0.222l0,0h0.222v0.222h0.223l0,0h0.222
							l0.223,0.222h0.219l0,0h0.225l0.22,0.222h0.225h0.22l0.222,0.222h0.225h0.444l0.22,0.22h0.222l-0.442,1.333l-0.225-0.22h-0.22
							h-0.225l-0.222-0.225h-0.22h-0.225l-0.22-0.22h-0.225h-0.219l-0.223-0.225h-0.222h-0.223l-0.222-0.22h-0.222h-0.222v-0.225
							h-0.222l-0.22-0.22h-0.232v-0.222l-0.22-0.222v-0.222h-0.225v-0.222l-0.222-0.222v-0.22v-0.225l-0.22-0.22v-0.225v-0.442
							v-0.222V-14.779L-233.797-14.779z M-232.459-15.001v0.222l0,0V-15.001z M-233.797-21.005h1.338l0,0l0,0v0.222v0.222v0.222l0,0
							v0.222v0.222v0.222v0.222v0.22l0,0l-0.22,0.225v0.22v0.225v0.222v0.22v0.225v0.219v0.225v0.219v0.225v0.22l0,0v0.222v0.229
							v0.222v0.222v0.222l0.22,0.22v0.225v0.222l0,0l-1.338,0.222v-0.222v-0.222v-0.225v-0.22v-0.222v-0.222l0,0l-0.225-0.222
							v-0.229v-0.222v-0.22v-0.225v-0.219v-0.225l0.225-0.219v-0.225v-0.22v-0.222v-0.225v-0.22v-0.225v-0.22v-0.222l0,0v-0.222
							v-0.222v-0.222v-0.222l0,0v-0.222V-21.005L-233.797-21.005L-233.797-21.005z M-233.797-34.784h1.338l0,0v0.222v0.444v0.222
							v0.444v0.22v0.455v0.444v0.444v0.22v0.444v0.667v0.444v0.444v0.444v0.444v0.442v0.669v0.442v0.444v0.444v0.664v0.444v0.444
							v0.452v0.447v0.442v0.444v0.444v0.444v0.444v0.22v0.444h-1.338v-0.444v-0.22v-0.444v-0.444v-0.444v-0.444v-0.442v-0.447
							v-0.452v-0.444v-0.444v-0.664v-0.444v-0.444v-0.442v-0.669v-0.442v-0.444v-0.444v-0.444v-0.444v-0.667v-0.444v-0.444v-0.22
							v-0.444v-0.455v-0.444v-0.22v-0.444v-0.222V-34.784L-233.797-34.784z M-231.57-38.337l0.667,1.111l0,0h-0.223v0.222h-0.222
							l0,0l-0.223,0.222l0,0l0,0h-0.222v0.222l0,0l0,0h-0.222l0,0v0.22l0,0l0,0h-0.222v0.225l0,0l0,0v0.22l0,0l0,0l-0.222,0.225l0,0
							v0.22l0,0v0.225l0,0v0.22v0.222l0,0h-1.338v-0.222v-0.22l0,0v-0.225v-0.22l0.22-0.225l0,0v-0.22l0,0v-0.225v-0.22h0.222
							v-0.222l0,0l0.225-0.222l0,0v-0.222l0,0h0.22v-0.225h0.232v-0.22l0,0h0.22v-0.222h0.222l0,0l0.222-0.222l0,0h0.222l0,0
							L-231.57-38.337L-231.57-38.337z M-219.795-45.004l0.667,0.889l0,0l-0.444,0.22l-0.222,0.225l-0.444,0.22l-0.444,0.225
							l-0.222,0.22l-0.444,0.222l-0.444,0.222l-0.444,0.222l-0.22,0.222l-0.444,0.222l-0.444,0.222l-0.444,0.222l-0.444,0.229
							L-224.465-41l-0.444,0.222l-0.444,0.222l-0.442,0.222l-0.444,0.22l-0.225,0.225l-0.444,0.22l-0.442,0.225l-0.444,0.22
							l-0.222,0.222l-0.444,0.222l-0.222,0.222l-0.444,0.222l-0.444,0.222l-0.222,0.222l-0.22,0.222h-0.444l-0.225,0.22
							l-0.219,0.225l-0.667-1.111l0.223-0.222h0.222l0.442-0.222l0.225-0.222l0.444-0.222l0.22-0.22l0.447-0.225l0.22-0.22
							l0.444-0.225l0.444-0.22l0.222-0.222l0.444-0.222l0.444-0.222l0.444-0.222l0.22-0.229l0.444-0.222l0.444-0.222l0.444-0.222
							l0.222-0.222l0.444-0.222l0.452-0.222l0.444-0.222l0.442-0.22l0.225-0.225l0.444-0.22l0.444-0.225l0.442-0.22l0.222-0.222
							l0.444-0.222l0.442-0.222l0.225-0.222H-219.795L-219.795-45.004z M-200.907-41.674l-0.667,1.118l0,0L-202.685-41l-1.108-0.674
							l-0.889-0.667l-1.111-0.444l-0.664-0.667l-0.891-0.444l-0.671-0.442l-0.669-0.444l-0.664-0.222l-0.444-0.444l-0.667-0.222
							l-0.444-0.22l-0.444-0.225l-0.222-0.22l-0.444-0.225l-0.444-0.22h-0.22h-0.222h-0.444h-0.222h-0.222h-0.222l-0.442,0.22
							h-0.444l-0.225,0.225l-0.442,0.22l-0.444,0.225l-0.674,0.442l-0.444,0.222l-0.667,0.444l-0.667,0.222l-0.664,0.444
							l-0.667-0.889l0.667-0.444l0.664-0.442l0.667-0.444l0.444-0.225l0.667-0.442l0.442-0.225l0.455-0.22l0.444-0.225l0.444-0.22
							h0.444l0.442-0.225h0.444h0.444h0.222h0.442l0.444,0.225l0.444,0.22h0.447l0.444,0.225l0.444,0.22l0.442,0.447l0.667,0.22
							l0.442,0.444l0.669,0.225l0.671,0.442l0.667,0.444l0.889,0.444l0.667,0.664l1.108,0.444l0.889,0.667l1.111,0.667
							L-200.907-41.674L-200.907-41.674z M-200.907-41.674L-200.907-41.674v0.222V-41.674z M-199.347-39.225l-2.227-1.331
							l0.667-1.118l2.227,1.34L-199.347-39.225L-199.347-39.225z M-199.347-39.225L-199.347-39.225L-199.347-39.225L-199.347-39.225
							z M-196.461-40.114l1.111,0.889l0,0h-0.222v0.222l-0.222,0.222l0,0v0.222h-0.222l0,0l-0.22,0.222l0,0l-0.225,0.222l0,0h-0.22
							l0,0h-0.225h-0.22l0,0h-0.222l0,0h-0.222l0,0l-0.222-0.222l0,0h-0.222l0,0l-0.222-0.222h-0.225l0,0l-0.22-0.222h-0.222v-0.222
							h-0.222l-0.222-0.222l0.667-1.108l0.22,0.22h0.225v0.225h0.222l0.222,0.22l0,0h0.222v0.225h0.222l0,0h0.222l0,0v0.22l0,0l0,0
							h0.22l0,0h-0.22l0,0l0,0l0,0l0,0l0,0l0,0l0.22-0.22l0,0l0,0v-0.225h0.225l0,0v-0.22L-196.461-40.114L-196.461-40.114z
							 M-195.35-41.674l1.108,0.896l0,0h-0.22l0,0v0.222l0,0l0,0l0,0h-0.222v0.222l0,0l0,0l0,0v0.22h-0.222l0,0l0,0l0,0v0.225l0,0
							l0,0h-0.222l0,0v0.22l0,0l0,0l0,0v0.225h-0.222l0,0l0,0l0,0v0.22l0,0l-1.111-0.889l0,0l0,0l0,0l0,0l0.225-0.22l0,0l0,0l0,0
							l0,0v-0.222h0.22l0,0l0,0l0,0v-0.222l0,0l0,0h0.222V-41l0,0l0,0l0,0l0,0v-0.222h0.222l0,0l0,0v-0.229l0,0l0,0h0.222V-41.674
							L-195.35-41.674z M-195.795-42.785l0.444-1.111l0,0l0.222,0.225h0.222l0,0h0.222v0.22l0,0h0.222v0.225h0.22l0,0l0,0
							l0.225,0.22l0,0v0.222h0.22v0.222l0,0v0.222l0,0v0.222v0.222l0,0l0,0v0.222l0,0l-0.22,0.222l0,0v0.229l0,0L-194.242-41l0,0
							v0.222l-1.108-0.896l0,0l0,0l0.222-0.222l0,0v-0.222l0,0l0,0l0,0h0.222v-0.222l0,0l0,0v0.222l0,0l0,0l0,0l0,0l0,0l0,0l0,0l0,0
							h-0.222l0,0v-0.222l0,0h-0.222l0,0v-0.222h-0.222l0,0h-0.222V-42.785L-195.795-42.785z M-207.57-49.445l0.669-1.119l0,0h0.22
							l0.225,0.222l0,0l0.22,0.225h0.222l0.444,0.22l0.222,0.225l0.222,0.228l0.444,0.222h0.22l0.444,0.222l0.444,0.222l0.222,0.222
							l0.444,0.222l0.444,0.444l0.444,0.22l0.444,0.225l0.444,0.22l0.442,0.225l0.444,0.222l0.444,0.22l0.452,0.444l0.444,0.225
							l0.442,0.22l0.447,0.222l0.444,0.222l0.444,0.222l0.444,0.222l0.22,0.222l0.444,0.222l0.444,0.222l0.222,0.22l-0.444,1.111
							l-0.442-0.222l-0.444-0.22l-0.444-0.225l-0.222-0.22l-0.444-0.225l-0.444-0.22l-0.444-0.222l-0.444-0.222l-0.452-0.222
							l-0.441-0.222l-0.445-0.444l-0.444-0.222l-0.444-0.22l-0.447-0.225l-0.444-0.22l-0.442-0.225l-0.444-0.22l-0.444-0.447
							l-0.22-0.22l-0.444-0.225l-0.444-0.22l-0.444-0.225h-0.222l-0.444-0.22l-0.222-0.222l-0.222-0.222l-0.22-0.222h-0.444
							l-0.225-0.222l0,0l-0.222-0.222H-207.57L-207.57-49.445z M-207.57-49.445L-207.57-49.445l-0.449-0.452L-207.57-49.445z
							 M-215.79-51.452l-0.455-1.108l0,0l0.455-0.222h0.444l0.22-0.222h0.444h0.225h0.442h0.222h0.444h0.222h0.444h0.22h0.225h0.444
							l0.22,0.222h0.222l0.444,0.222h0.225h0.22l0.444,0.222l0.222,0.222h0.222l0.222,0.22h0.222l0.222,0.225h0.444l0.22,0.22
							l0.225,0.225h0.227l0.222,0.22l0.222,0.222h0.222l0.225,0.222l-0.669,1.119l-0.222-0.228h-0.227l-0.225-0.225l-0.22-0.22
							h-0.225l-0.22-0.225h-0.222l-0.222-0.222l-0.222-0.222h-0.222l-0.442-0.222h-0.225l-0.22-0.22h-0.225l-0.22-0.225h-0.225
							h-0.222l-0.22-0.22h-0.225h-0.444h-0.22h-0.222l-0.222-0.225h-0.222h-0.444h-0.222l-0.222,0.225h-0.22h-0.444h-0.225
							l-0.22,0.22H-215.79L-215.79-51.452z M-223.127-47.446l-0.664-0.889l0,0l0.222-0.222l0.222-0.222h0.22l0.225-0.222h0.22
							l0.225-0.222l0.22-0.222h0.225l0.22-0.228l0.222-0.225h0.222l0.222-0.22h0.222l0.222-0.225l0.22-0.222h0.447l0.222-0.222
							l0.222-0.222h0.222l0.222-0.22l0.22-0.225h0.225l0.22-0.22h0.444l0.222-0.225l0.222-0.22h0.222l0.222-0.222h0.222l0.222-0.222
							h0.222h0.22l0.455,1.108h-0.222l-0.232,0.225h-0.22l-0.222,0.22h-0.222l-0.222,0.222h-0.222l-0.222,0.222h-0.222l-0.222,0.222
							h-0.22l-0.225,0.225l-0.22,0.22h-0.225l-0.22,0.225l-0.444,0.228h-0.222l-0.222,0.222h-0.222l-0.225,0.222l-0.22,0.222h-0.222
							l-0.222,0.222l-0.222,0.222h-0.222l-0.222,0.22l-0.22,0.225h-0.225l-0.22,0.22h-0.225l-0.22,0.225H-223.127L-223.127-47.446z
							 M-230.459-43.227l-0.667-1.111l0,0h0.223l0.219-0.222h0.225l0.22-0.222l0.225-0.222h0.22l0.222-0.222h0.225l0.444-0.222h0.22
							l0.222-0.222l0.222-0.22h0.222l0.222-0.225h0.222l0.222-0.22l0.222-0.225h0.22l0.225-0.22h0.22l0.225-0.222l0.22-0.225h0.225
							l0.22-0.22h0.222l0.222-0.225h0.222l0.222-0.22l0.222-0.225h0.229l0.222-0.22h0.222l0.664,0.889l-0.22,0.22l-0.222,0.225
							h-0.222l-0.222,0.222l-0.222,0.22h-0.229l-0.222,0.225h-0.222l-0.222,0.22l-0.222,0.225h-0.222l-0.22,0.22h-0.225l-0.22,0.222
							h-0.225l-0.22,0.222l-0.225,0.222h-0.22l-0.222,0.222h-0.222l-0.444,0.222l-0.222,0.222h-0.222l-0.222,0.222h-0.22
							l-0.225,0.22l-0.22,0.225h-0.225l-0.222,0.22h-0.22l-0.225,0.225H-230.459L-230.459-43.227z M-237.349-27.67h-1.333l0,0
							v-0.891v-0.889v-0.886v-0.889v-0.664v-0.669v-0.674v-0.664v-0.667v-0.444v-0.664l0.222-0.444v-0.444v-0.667l0.222-0.444
							l0.222-0.444v-0.444l0.222-0.444l0.222-0.222l0.222-0.444l0.444-0.444l0.22-0.442l0.444-0.222l0.444-0.444l0.444-0.229
							l0.442-0.444l0.444-0.444l0.669-0.222l0.667-0.444l0.671-0.444l0.667-0.444l0.667-0.442l0.667,1.111l-0.667,0.442
							l-0.889,0.444l-0.444,0.444l-0.671,0.444l-0.447,0.229l-0.664,0.444l-0.444,0.222l-0.225,0.442l-0.442,0.225l-0.222,0.22
							l-0.444,0.444l-0.222,0.222l-0.22,0.444l-0.225,0.222v0.444l-0.22,0.222l-0.225,0.444v0.444v0.442l-0.22,0.444v0.444v0.444
							v0.444v0.667v0.664v0.674v0.669v0.664v0.889v0.667v0.889V-27.67L-237.349-27.67z M-237.349-15.889h-1.333l0,0v-0.444v-0.229
							v-0.442v-0.444v-0.225v-0.444v-0.442v-0.225v-0.444v-0.442v-0.222v-0.444v-0.444v-0.222v-0.444v-0.444v-0.22v-0.444v-0.444
							v-0.222v-0.444v-0.444v-0.222v-0.452v-0.444v-0.22v-0.444v-0.444v-0.222v-0.444v-0.444v-0.22h1.333v0.22v0.444v0.444v0.222
							v0.444v0.444v0.22v0.444v0.452v0.222v0.444v0.444v0.222v0.444v0.444v0.22v0.444v0.444v0.222v0.444v0.444v0.222v0.442v0.444
							v0.225v0.442v0.444v0.225v0.444v0.22v0.452V-15.889L-237.349-15.889z M-233.355-9.229l-0.667,1.118l0,0l-0.22-0.229
							l-0.225-0.222h-0.22l-0.225-0.222l-0.22-0.222l-0.222-0.222h-0.222l-0.222-0.22l-0.222-0.225l-0.222-0.222l-0.22-0.222l0,0
							l-0.225-0.222l-0.22-0.22l-0.225-0.225v-0.22l-0.22-0.225l-0.222-0.22v-0.225l-0.222-0.22v-0.444l-0.222-0.222v-0.222
							l-0.222-0.222v-0.444l-0.222-0.22v-0.444v-0.222v-0.444l-0.222-0.444v-0.225v-0.442h1.333v0.222v0.444v0.222l0.22,0.444v0.222
							v0.222v0.444l0.225,0.22v0.225v0.22l0.22,0.222v0.222l0.225,0.222v0.222l0.22,0.222v0.22h0.222l0.222,0.225v0.22l0.222,0.225
							h0.222v0.22l0.222,0.225h0.22l0.225,0.22v0.222h0.22l0.225,0.222l0.22,0.222h0.225l0.22,0.225L-233.355-9.229L-233.355-9.229z
							 M-226.02-5.003l-0.444,1.111l0,0l-0.22-0.222l-0.225-0.222h-0.22l-0.444-0.222h-0.222l-0.222-0.222h-0.222l-0.222-0.222
							l-0.222-0.222h-0.22l-0.225-0.222h-0.22l-0.225-0.22h-0.222l-0.22-0.225l-0.225-0.222h-0.22l-0.225-0.222h-0.442l-0.222-0.222
							l-0.223-0.22h-0.222l-0.222-0.225h-0.222l-0.222-0.22l-0.22-0.225h-0.232l-0.22-0.22h-0.225l-0.222-0.225l-0.22-0.22h-0.225
							l0.667-1.118h0.225l0.22,0.222l0.232,0.222h0.22l0.222,0.222h0.222l0.222,0.222l0.222,0.229h0.223l0.222,0.22h0.223
							l0.219,0.225l0.225,0.22h0.22l0.225,0.225h0.22l0.447,0.22h0.22l0.225,0.225l0.22,0.22h0.222l0.222,0.222h0.222l0.222,0.222
							h0.222l0.222,0.222l0.222,0.225h0.22l0.225,0.22h0.22l0.225,0.222L-226.02-5.003L-226.02-5.003z M-218.684-0.784l-0.667,1.118
							l0,0l-0.222-0.232h-0.222l-0.222-0.22h-0.222l-0.225-0.222l-0.22-0.222h-0.222l-0.222-0.222l-0.222-0.225h-0.222l-0.222-0.22
							h-0.22l-0.225-0.222l-0.22-0.222h-0.225l-0.22-0.222h-0.225l-0.22-0.222l-0.222-0.222h-0.222l-0.222-0.22h-0.222l-0.229-0.225
							l-0.222-0.22h-0.222l-0.222-0.225h-0.222l-0.222-0.219l-0.22-0.225h-0.225l-0.22-0.22h-0.225l0.444-1.111h0.444l0.222,0.222
							h0.222l0.222,0.222l0.222,0.222h0.222l0.229,0.222h0.222l0.222,0.222l0.222,0.22h0.222l0.22,0.225h0.225l0.22,0.219
							l0.225,0.225h0.22l0.225,0.22h0.22l0.222,0.225l0.222,0.22h0.222l0.222,0.222l0.222,0.222h0.22l0.225,0.222h0.222l0.222,0.222
							l0.222,0.222h0.222l0.222,0.22h0.22L-218.684-0.784L-218.684-0.784z M-203.129-3.892l0.667,1.109l0,0l-0.667,0.225
							l-0.444,0.442l-0.664,0.444l-0.444,0.222l-0.667,0.442l-0.444,0.225l-0.664,0.444l-0.444,0.222l-0.447,0.452l-0.671,0.22
							l-0.444,0.225l-0.444,0.22l-0.444,0.225l-0.444,0.22l-0.442,0.222l-0.444,0.222h-0.669l-0.442,0.222h-0.444l-0.444,0.222
							h-0.444h-0.667l-0.444-0.222h-0.444h-0.664l-0.444-0.222l-0.455-0.222l-0.664-0.222l-0.667-0.22l-0.444-0.225l-0.664-0.22
							l-0.667-0.444l0.667-1.118l0.664,0.444l0.444,0.222l0.667,0.22l0.444,0.232l0.452,0.22l0.667,0.225h0.444h0.444l0.442,0.22
							h0.444h0.444h0.222h0.442l0.444-0.22h0.444l0.447-0.225h0.444l0.444-0.22l0.442-0.232l0.444-0.22l0.444-0.222l0.444-0.222
							l0.444-0.222l0.449-0.444l0.444-0.222l0.669-0.444l0.442-0.222l0.444-0.442l0.664-0.225l0.669-0.445l0.444-0.444
							L-203.129-3.892L-203.129-3.892z M-195.573-8.111l0.667,1.108l0,0h-0.222l-0.222,0.225l-0.444,0.22h-0.222l-0.22,0.222h-0.225
							l-0.22,0.222l-0.225,0.222h-0.22l-0.222,0.225h-0.222l-0.222,0.22h-0.222l-0.222,0.222l-0.225,0.222h-0.22l-0.222,0.222
							h-0.222l-0.222,0.222h-0.23l-0.222,0.222l-0.219,0.222h-0.225l-0.22,0.222h-0.225l-0.22,0.22h-0.222l-0.444,0.225
							l-0.225,0.219h-0.22l-0.225,0.225l-0.22,0.22l-0.667-1.109l0.222-0.222l0.222-0.222h0.442l0.225-0.222l0.22-0.222h0.225
							l0.222-0.222h0.222l0.222-0.222l0.22-0.222h0.225l0.22-0.22h0.225l0.219-0.225h0.222l0.23-0.222l0.222-0.222h0.222
							l0.222-0.222h0.22l0.225-0.22h0.222l0.222-0.225l0.222-0.22h0.222l0.442-0.225h0.225l0.22-0.22h0.225l0.22-0.225l0.222-0.22
							H-195.573L-195.573-8.111z M-189.791-22.113h1.331l0,0v0.889v0.664v0.889v0.667v0.667v0.664v0.669v0.442v0.674v0.442v0.669
							l-0.222,0.444v0.442v0.444l-0.222,0.444l-0.222,0.444v0.444l-0.222,0.222l-0.222,0.444l-0.22,0.444l-0.225,0.22l-0.444,0.444
							l-0.22,0.222l-0.444,0.444l-0.229,0.225l-0.444,0.442l-0.444,0.222l-0.444,0.444l-0.444,0.229l-0.667,0.444l-0.664,0.22
							l-0.444,0.444l-0.667-1.108l0.667-0.452l0.444-0.222l0.444-0.444l0.664-0.22l0.444-0.225l0.222-0.444l0.444-0.222l0.444-0.22
							l0.222-0.444l0.222-0.225l0.229-0.22l0.222-0.444l0.222-0.222l0.22-0.222v-0.444l0.225-0.222v-0.444l0.22-0.22v-0.444
							l0.225-0.444v-0.444v-0.447v-0.442v-0.674v-0.442v-0.669v-0.664v-0.667v-0.667v-0.889v-0.664V-22.113L-189.791-22.113z
							 M-192.462-24.335v-1.34l0,0h0.22h0.444h0.222h0.222h0.229l0.222,0.225h0.222h0.22h0.225h0.22h0.225l0,0h0.22l0.222,0.22
							h0.222v0.225h0.222v0.22h0.222v0.229v0.222l0.222,0.222l0,0v0.225v0.22v0.222v0.222v0.222v0.222v0.222v0.222v0.222h-1.331
							v-0.222v-0.222v-0.222v-0.222v-0.222v-0.222l0,0v-0.222v-0.22l0,0l0,0v-0.225l0,0l0,0l0,0l0,0l0,0h-0.225l0,0l0,0h-0.22l0,0
							l-0.225-0.222l0,0h-0.22h-0.222h-0.222h-0.229h-0.222h-0.222h-0.444H-192.462L-192.462-24.335z M-192.462-24.335
							L-192.462-24.335L-192.462-24.335L-192.462-24.335z"/>
						<path id="_x31_" fill="#E31E24" d="M-192.462-25.006h-14.439v4.89h10.884c2.444,0,2.219-0.222,2.219,1.997
							c-0.22,2.452-0.22,2.671-0.664,4.671c-0.444,1.775-0.889,2.444-2.886,2.888c-10.445,2.219-14.446,7.557-16.446,9.551
							c-3.56-4.659-9.554-7.999-14.891-9.996c-2.886-0.889-4.446-0.889-4.446-3.774c-0.225-2.227,0-4.671,0-6.226
							c0-3.552-0.225-11.108,0-13.78c0.22-1.775,0.671-2.219,1.783-2.886c2.886-2,8.22-4.67,11.775-6.89
							c7.999-4.885,5.557-3.555,18.443,3.56l2.227,1.331c1.997,1.111,1.777,1.555,2.886,0c0.444-0.444,0.667-0.886,1.111-1.553
							c0.889-1.118,0.664-1.34-0.667-2.004c-3.774-2.222-10.22-5.996-11.553-6.89c-2.671-1.335-5.337-3.11-8.887-2
							c-2.227,0.889-5.337,2.894-7.334,4.227c-2.449,1.331-4.893,2.886-7.556,4.219c-8.223,4.668-7.112,5.557-7.112,16.001
							c0,3.782-0.222,7.998,0,11.78c0.222,4.216,1.775,5.549,4.438,7.104c2.229,1.563,4.893,2.893,7.337,4.226
							c2.449,1.556,4.89,2.886,7.332,4.441c6.446,3.782,9.334,0.896,16.224-3.33c2.441-1.556,4.893-2.667,7.334-4.219
							c6.89-3.782,6.223-5.115,6.223-14.446C-189.127-25.006-188.905-25.006-192.462-25.006z"/>
					</g>
					<path fill="#1C1B17" d="M-218.464-22.557c1.555,0,6.001,0,7.557,0c0,0,0,0,0,0.222h-7.332c2.894,1.111,2.227,0.667,4.446,3.105
						c1.111-0.664,1.331-1.108,4.219-0.886v-4.89c-2,0-3.108,0-4.441-0.889C-214.902-23.668-217.131-23.446-218.464-22.557z"/>
					<polygon fill="#1C1B17" points="-208.908,-19.672 -208.019,-19.672 -208.019,-25.45 -208.908,-25.45 					"/>
				</g>
				<g>
					<path fill="#2B2A29" d="M191.764,56.327c0-9.776-14.668-7.555-14.668-12.664c0-1.777,1.328-2.671,3.11-2.671
						c1.994,0,3.338,1.115,3.338,3.115h7.998c-0.444-5.776-4.671-8.887-11.119-8.887c-6.216,0-10.886,3.11-10.886,8.664
						c0,10.447,14.673,7.56,14.673,13.108c0,1.782-1.333,2.671-3.338,2.671c-1.999,0-3.555-1.105-3.776-3.337h-7.559
						c0.222,5.998,5.119,9.109,11.558,9.109C187.983,65.437,191.764,61.437,191.764,56.327z M197.314,56.993
						c0,6.226,3.56,8.221,8.447,8.221h3.555V59.22h-2.448c-1.777,0-2.217-0.661-2.217-2.004v-9.554h4.665v-6.004h-4.665v-5.771
						h-7.337v5.771h-2.889v6.004h2.889V56.993z M236.654,41.658h-7.337V54.55c0,3.11-1.777,4.897-4.438,4.897
						c-2.676,0-4.448-1.787-4.448-4.897V41.658h-7.337v13.78c0,6.226,3.782,9.998,9.109,9.998c3.337,0,5.781-1.328,7.114-3.328
						v3.105h7.337V41.658z M240.43,53.444c0,7.332,4.439,12.215,10.226,12.215c3.55,0,5.988-1.55,7.332-3.772v3.328h7.326V34.11
						h-7.326v10.887c-1.344-2.222-4.227-3.56-7.332-3.56C244.869,41.437,240.43,46.107,240.43,53.444z M257.988,53.444
						c0,3.772-2.454,5.776-5.115,5.776c-2.666,0-5.115-2.004-5.115-5.776c0-3.787,2.449-5.781,5.115-5.781
						C255.533,47.662,257.988,49.656,257.988,53.444z M280.871,47.218c2.448,0,4.448,1.328,4.448,4.004h-9.109
						C276.65,48.546,278.427,47.218,280.871,47.218z M291.985,57.438h-7.554c-0.667,1.338-1.777,2.227-3.782,2.227
						c-2.222,0-4.216-1.328-4.438-4.443h16.219c0.223-0.671,0.223-1.56,0.223-2.222c0-7.114-4.894-11.563-11.78-11.563
						c-6.883,0-11.775,4.67-11.775,12.007c0,7.554,4.893,12.215,11.775,12.215C286.875,65.658,290.874,62.109,291.985,57.438z
						 M312.652,65.214h7.11v-13.77c0-6.227-3.55-10.008-8.888-10.008c-3.332,0-5.781,1.338-7.336,3.337v-3.115h-7.11v23.556h7.11
						V52.55c0-3.338,1.777-5.115,4.675-5.115c2.661,0,4.438,1.777,4.438,5.115V65.214z M325.988,56.993
						c0,6.226,3.327,8.221,8.221,8.221h3.771V59.22h-2.661c-1.555,0-1.999-0.661-1.999-2.004v-9.554h4.66v-6.004h-4.66v-5.771
						h-7.332v5.771h-2.898v6.004h2.898V56.993z M361.096,58.336c-0.223-8.68-12.891-6.003-12.891-9.79
						c0-1.111,0.894-1.772,2.666-1.772c1.999,0,3.11,0.889,3.332,2.661h6.67c-0.443-4.661-3.776-7.998-9.775-7.998
						c-6.226,0-9.554,3.12-9.554,7.109c0,8.67,12.659,6.004,12.659,9.79c0,1.111-0.884,1.995-2.661,1.995
						c-1.999,0-3.56-1.111-3.786-2.894h-7.101c0.439,4.671,4.661,8.221,10.887,8.221C357.546,65.658,361.096,62.553,361.096,58.336z
						"/>
					<path fill="#2B2A29" d="M-8.909,53.444c0-7.337-5.327-12.007-12.22-12.007c-6.887,0-12.214,4.67-12.214,12.007
						c0,7.554,5.105,12.215,11.992,12.215C-14.236,65.658-8.909,60.997-8.909,53.444z M-26.016,53.444
						c0-4.009,2.227-5.781,4.888-5.781c2.444,0,4.893,1.772,4.893,5.781c0,3.994-2.449,5.776-5.115,5.776
						C-23.79,59.22-26.016,57.438-26.016,53.444z M-4.46,65.214h7.336V47.662h3.772v-6.004H2.876v-0.222
						c0-2.439,0.884-3.328,3.772-3.105v-6.227C-0.461,31.883-4.46,34.777-4.46,40.992v0.666h-2.444v6.004h2.444V65.214z"/>
				</g>
			</g>
		</g>
		<path fill="#E31E24" d="M-234.685,65.214h7.557V34.332h-11.775v6.887h4.219V65.214z M-193.573,50.333
			c0,8.887,6.223,15.104,14.888,15.104c7.114,0,12.452-4,14.004-10.216h-7.779c-1.333,2.439-3.562,3.777-6.226,3.777
			c-4.446,0-7.557-3.338-7.557-8.665c0-5.115,3.111-8.447,7.557-8.447c2.664,0,4.893,1.333,6.226,3.776h7.779
			c-1.553-6.442-6.89-10.441-14.004-10.441C-187.35,35.221-193.573,41.437-193.573,50.333z M-160.24,65.214h7.332V52.55
			c0-3.338,1.777-5.115,4.448-5.115c2.886,0,4.441,1.777,4.441,5.115v12.664h7.334v-13.77c0-6.227-3.552-10.008-8.89-10.008
			c-3.33,0-6.001,1.338-7.334,3.337V34.11h-7.332V65.214z M-108.687,53.444c0-7.337-5.328-12.007-12.22-12.007
			c-6.89,0-12.217,4.67-12.217,12.007c0,7.554,5.107,12.215,12.217,12.215C-114.015,65.658-108.687,60.997-108.687,53.444z
			 M-125.798,53.444c0-4.009,2.227-5.781,4.891-5.781c2.444,0,4.893,1.772,4.893,5.781c0,3.994-2.449,5.776-4.893,5.776
			C-123.571,59.22-125.798,57.438-125.798,53.444z M-104.906,65.214h7.336V41.658h-7.336V65.214z M-101.131,39.22
			c2.451,0,4.226-1.777,4.226-3.777c0-2.227-1.775-4.004-4.226-4.004c-2.664,0-4.438,1.777-4.438,4.004
			C-105.57,37.443-103.795,39.22-101.131,39.22z M-93.797,53.444c0,7.554,4.893,12.215,11.782,12.215
			c5.994,0,9.998-3.55,11.331-8.887h-7.778c-0.667,1.787-1.777,2.676-3.775,2.676c-2.449,0-4.224-2.01-4.224-6.004
			c0-4.009,1.775-6.009,4.224-6.009c1.998,0,3.333,1.111,3.775,2.677h7.778c-1.333-5.555-5.337-8.675-11.331-8.675
			C-88.904,41.437-93.797,46.107-93.797,53.444z M-56.459,47.218c2.439,0,4.443,1.328,4.443,4.004h-9.114
			C-60.683,48.546-58.908,47.218-56.459,47.218z M-45.35,57.438h-7.554c-0.671,1.338-1.777,2.227-3.777,2.227
			c-2.227,0-4.226-1.328-4.448-4.443h16.224c0.222-0.671,0.222-1.56,0.222-2.222c0-7.114-4.883-11.563-11.775-11.563
			c-6.89,0-11.78,4.67-11.78,12.007c0,7.554,4.891,12.215,11.78,12.215C-50.46,65.658-46.461,62.109-45.35,57.438z M-213.349,40.77
			c0-4.438-6.446-3.11-6.446-4.883c0-0.666,0.444-1.11,1.331-1.11c1.111,0,1.555,0.666,1.777,1.333h3.338
			c-0.222-2.222-1.997-4.005-4.891-4.005c-3.11,0-4.888,1.783-4.888,3.782c0,4.222,6.44,2.884,6.44,4.883
			c0,0.449-0.444,0.889-1.333,0.889c-1.108,0-1.775-0.666-1.997-1.333h-3.552c0.222,2.231,2.441,4.004,5.549,4.004
			C-215.126,44.329-213.349,42.775-213.349,40.77z M-210.463,40.109c0,3.11,1.555,3.999,4.006,3.999h1.995v-3.115h-1.331
			c-0.889,0-1.108-0.223-1.108-0.884v-4.666h2.439v-3.115h-2.439v-2.889h-3.562v2.889h-1.555v3.115h1.555V40.109z"/>
		<path fill="#E31E24" d="M22.205,65.214h7.11V35.665h-7.11V65.214z M48.427,35.221c-8.887,0-15.108,6.216-15.108,15.112
			c0,8.887,6.221,15.104,15.108,15.104c7.776,0,12.892-5.105,14.219-10.216v-6.675H47.094v5.337h9.109
			c-1.111,3.333-3.55,5.115-7.109,5.115c-5.328,0-8.448-3.115-8.448-8.665c0-5.115,3.12-8.447,7.781-8.447
			c2.671,0,4.666,1.11,5.781,3.11h7.999C60.652,38.997,55.536,35.221,48.427,35.221z M85.985,35.665v18.218L73.982,35.665h-7.326
			v29.549h7.326V46.995l12.003,18.219h7.337V35.665H85.985z M127.541,50.333c0-8.896-6.666-15.112-15.113-15.112
			c-8.442,0-15.112,6.216-15.112,15.112c0,8.887,6.67,15.104,15.112,15.104C120.875,65.437,127.541,59.22,127.541,50.333z
			 M104.652,50.333c0-5.337,3.111-8.675,7.776-8.675c4.671,0,7.776,3.338,7.776,8.675c0,5.105-3.105,8.665-7.776,8.665
			C107.763,58.998,104.652,55.439,104.652,50.333z M131.54,53.222c0,8.215,5.332,12.215,12.225,12.215
			c6.888,0,12.441-4,12.441-12.215V35.665h-7.114v17.778c0,3.328-1.777,5.332-5.327,5.332c-3.338,0-5.12-2.004-5.12-5.332V35.665
			h-7.104V53.222z"/>
	</g>
</g>
</svg>
